
    <svg width="300" height="300" viewBox="0 0 300 300" fill="none" xmlns="http://www.w3.org/2000/svg">
    <rect width="300" height="300" fill="#FC7777"/>
    
            
    <circle cx="149.5" cy="151.6" r="93.5" fill="url(#paint0_linear_6_39)" stroke="black" stroke-width="4"/>
    <defs>
    <linearGradient id="paint0_linear_6_39" x1="150" y1="56.8" x2="92.3467" y2="229.76" gradientUnits="userSpaceOnUse">
    <stop stop-color="white"/>
    <stop offset="0.734375" stop-color="white"/>
    <stop offset="1" stop-color="#C4C2C2"/>
    </linearGradient>
    </defs>
    
        
    <path d="M143.133 37.0001C121.305 52.9465 112.816 50.6051 111.3 47.4412" stroke="black" stroke-width="3"/>
    <path d="M169.873 43.3667L190.247 53.5534" stroke="black" stroke-width="3"/>
    
        
    <path d="M127.982 96C128.125 145.937 127.387 166.141 127 170" stroke="black" stroke-width="10"/>
    <path d="M115 94H141" stroke="black" stroke-width="5"/>
    <path d="M114 172H140" stroke="black" stroke-width="5"/>
    <path d="M183 94C183 147.986 183 169.828 183 174" stroke="black" stroke-width="10"/>
    <path d="M171 94H197" stroke="black" stroke-width="5"/>
    <path d="M169 174H182H195" stroke="black" stroke-width="5"/>
    
    
        
    <path d="M142 208.5C142 212.589 138.473 216 134 216C129.527 216 126 212.589 126 208.5C126 204.411 129.527 201 134 201C138.473 201 142 204.411 142 208.5Z" stroke="black" stroke-width="2"/>
    

    </svg>
    