
    <svg width="300" height="300" viewBox="0 0 300 300" fill="none" xmlns="http://www.w3.org/2000/svg">
    <rect width="300" height="300" fill="#F691E0"/>
    
            
    <circle cx="149.5" cy="151.6" r="93.5" fill="url(#paint0_linear_6_39)" stroke="black" stroke-width="4"/>
    <defs>
    <linearGradient id="paint0_linear_6_39" x1="150" y1="56.8" x2="92.3467" y2="229.76" gradientUnits="userSpaceOnUse">
    <stop stop-color="white"/>
    <stop offset="0.734375" stop-color="white"/>
    <stop offset="1" stop-color="#C4C2C2"/>
    </linearGradient>
    </defs>
    
        
    <path d="M112.4 50.5333C133.886 34.8374 142.241 37.142 143.733 40.2562" stroke="black" stroke-width="3"/>
    <path d="M182.587 41.76C198.379 53.9033 204.207 54.9931 205.147 54.0201" stroke="black" stroke-width="3"/>
    
        
    <path d="M127.982 96C128.125 145.937 127.387 166.141 127 170" stroke="black" stroke-width="10"/>
    <path d="M115 94H141" stroke="black" stroke-width="5"/>
    <path d="M114 172H140" stroke="black" stroke-width="5"/>
    <path d="M183 94C183 147.986 183 169.828 183 174" stroke="black" stroke-width="10"/>
    <path d="M171 94H197" stroke="black" stroke-width="5"/>
    <path d="M169 174H182H195" stroke="black" stroke-width="5"/>
    
    
        
    <path d="M120.5 203.5L127 206.25L133.5 209L137 210.5" stroke="black" stroke-width="2"/>
    <path d="M162 209.433C156.209 208.463 150.505 207.046 145.253 205.438M145.253 205.438C130.417 200.895 119.197 194.827 119.862 193C112.299 201.482 115.54 209.433 116.621 209.433C132.287 220.035 142.012 216.678 142.552 215.794C146.874 209.963 145.433 205.709 145.253 205.438Z" stroke="black" stroke-width="2"/>
    

    </svg>
    