
    <svg width="300" height="300" viewBox="0 0 300 300" fill="none" xmlns="http://www.w3.org/2000/svg">
    <rect width="300" height="300" fill="#4C91D0"/>
    
            
    <circle cx="149.5" cy="151.6" r="93.5" fill="url(#paint0_linear_6_39)" stroke="black" stroke-width="4"/>
    <defs>
    <linearGradient id="paint0_linear_6_39" x1="150" y1="56.8" x2="92.3467" y2="229.76" gradientUnits="userSpaceOnUse">
    <stop stop-color="white"/>
    <stop offset="0.734375" stop-color="white"/>
    <stop offset="1" stop-color="#C4C2C2"/>
    </linearGradient>
    </defs>
    
        
    <path d="M115 50C126.34 28.5446 135.72 47.9828 136 50" stroke="black" stroke-width="3"/>
    <path d="M166 50C177.34 28.5446 186.72 47.9828 187 50" stroke="black" stroke-width="3"/>
    
        
    <path d="M127.83 98.12C128.012 153.973 127.073 176.57 126.58 180.887" stroke="black" stroke-width="10"/>
    <path d="M185.107 94.3C185.471 155.309 183.592 179.992 182.607 184.707" stroke="black" stroke-width="10"/>
    
        
    <path d="M142 208.5C142 212.589 138.473 216 134 216C129.527 216 126 212.589 126 208.5C126 204.411 129.527 201 134 201C138.473 201 142 204.411 142 208.5Z" stroke="black" stroke-width="2"/>
    

    </svg>
    