
    <svg width="300" height="300" viewBox="0 0 300 300" fill="none" xmlns="http://www.w3.org/2000/svg">
    <rect width="300" height="300" fill="#F691E0"/>
    
            
    <circle cx="149.5" cy="151.6" r="93.5" fill="url(#paint0_linear_6_39)" stroke="black" stroke-width="4"/>
    <defs>
    <linearGradient id="paint0_linear_6_39" x1="150" y1="56.8" x2="92.3467" y2="229.76" gradientUnits="userSpaceOnUse">
    <stop stop-color="white"/>
    <stop offset="0.734375" stop-color="white"/>
    <stop offset="1" stop-color="#C4C2C2"/>
    </linearGradient>
    </defs>
    
        
    <path d="M115 50C126.34 28.5446 135.72 47.9828 136 50" stroke="black" stroke-width="3"/>
    <path d="M166 50C177.34 28.5446 186.72 47.9828 187 50" stroke="black" stroke-width="3"/>
    
        
    <path d="M118.227 159.091V108.182H121.489V159.091H118.227ZM129.205 123.455C128.966 121.439 127.998 119.875 126.301 118.761C124.604 117.648 122.523 117.091 120.057 117.091C118.254 117.091 116.676 117.383 115.324 117.966C113.985 118.549 112.938 119.351 112.182 120.372C111.439 121.393 111.068 122.553 111.068 123.852C111.068 124.939 111.327 125.874 111.844 126.656C112.374 127.425 113.05 128.068 113.872 128.585C114.694 129.089 115.556 129.507 116.457 129.838C117.359 130.156 118.188 130.415 118.943 130.614L123.08 131.727C124.14 132.006 125.32 132.39 126.619 132.881C127.932 133.371 129.185 134.041 130.378 134.889C131.584 135.724 132.579 136.798 133.361 138.111C134.143 139.423 134.534 141.034 134.534 142.943C134.534 145.144 133.957 147.133 132.804 148.909C131.664 150.686 129.993 152.098 127.793 153.145C125.605 154.192 122.947 154.716 119.818 154.716C116.902 154.716 114.376 154.245 112.241 153.304C110.12 152.363 108.45 151.05 107.23 149.366C106.024 147.683 105.341 145.727 105.182 143.5H110.273C110.405 145.038 110.922 146.311 111.824 147.318C112.739 148.312 113.892 149.055 115.284 149.545C116.689 150.023 118.201 150.261 119.818 150.261C121.701 150.261 123.391 149.956 124.889 149.347C126.387 148.723 127.574 147.862 128.449 146.761C129.324 145.648 129.761 144.348 129.761 142.864C129.761 141.511 129.384 140.411 128.628 139.562C127.872 138.714 126.878 138.025 125.645 137.494C124.412 136.964 123.08 136.5 121.648 136.102L116.636 134.67C113.455 133.756 110.936 132.45 109.08 130.753C107.223 129.056 106.295 126.835 106.295 124.091C106.295 121.811 106.912 119.822 108.145 118.125C109.391 116.415 111.062 115.089 113.156 114.148C115.264 113.193 117.617 112.716 120.216 112.716C122.841 112.716 125.174 113.187 127.216 114.128C129.258 115.056 130.875 116.329 132.068 117.946C133.275 119.563 133.911 121.4 133.977 123.455H129.205Z" fill="black"/>
    <path d="M118.227 159.091H116.727V160.591H118.227V159.091ZM118.227 108.182V106.682H116.727V108.182H118.227ZM121.489 108.182H122.989V106.682H121.489V108.182ZM121.489 159.091V160.591H122.989V159.091H121.489ZM129.205 123.455L127.715 123.631L127.872 124.955H129.205V123.455ZM126.301 118.761L125.478 120.015L125.478 120.015L126.301 118.761ZM115.324 117.966L114.73 116.589L114.725 116.591L115.324 117.966ZM112.182 120.372L110.976 119.48L110.969 119.49L112.182 120.372ZM111.844 126.656L110.592 127.483L110.601 127.496L110.609 127.508L111.844 126.656ZM113.872 128.585L113.073 129.855L113.081 129.86L113.088 129.864L113.872 128.585ZM116.457 129.838L115.94 131.246L115.949 131.249L115.958 131.253L116.457 129.838ZM118.943 130.614L119.333 129.165L119.325 129.163L118.943 130.614ZM123.08 131.727L122.69 133.176L122.699 133.178L123.08 131.727ZM126.619 132.881L126.089 134.284L126.094 134.286L126.619 132.881ZM130.378 134.889L129.509 136.112L129.516 136.117L129.524 136.122L130.378 134.889ZM133.361 138.111L134.649 137.343L134.649 137.343L133.361 138.111ZM132.804 148.909L131.546 148.092L131.542 148.099L132.804 148.909ZM127.793 153.145L127.148 151.79L127.145 151.792L127.793 153.145ZM112.241 153.304L111.633 154.675L111.636 154.676L112.241 153.304ZM107.23 149.366L106.011 150.24L106.015 150.246L107.23 149.366ZM105.182 143.5V142H103.571L103.686 143.607L105.182 143.5ZM110.273 143.5L111.767 143.371L111.649 142H110.273V143.5ZM111.824 147.318L110.706 148.318L110.713 148.326L110.72 148.334L111.824 147.318ZM115.284 149.545L114.786 150.96L114.794 150.963L114.802 150.966L115.284 149.545ZM124.889 149.347L125.455 150.736L125.465 150.732L124.889 149.347ZM128.449 146.761L129.623 147.695L129.628 147.688L128.449 146.761ZM128.628 139.562L129.748 138.565L129.748 138.565L128.628 139.562ZM125.645 137.494L125.052 138.872L125.052 138.872L125.645 137.494ZM121.648 136.102L121.236 137.545L121.246 137.548L121.648 136.102ZM116.636 134.67L116.222 136.112L116.224 136.113L116.636 134.67ZM109.08 130.753L108.067 131.86L108.067 131.86L109.08 130.753ZM108.145 118.125L106.933 117.242L106.931 117.243L108.145 118.125ZM113.156 114.148L113.771 115.516L113.775 115.514L113.156 114.148ZM127.216 114.128L126.588 115.49L126.595 115.493L127.216 114.128ZM132.068 117.946L130.861 118.837L130.866 118.843L132.068 117.946ZM133.977 123.455V124.955H135.526L135.476 123.406L133.977 123.455ZM119.727 159.091V108.182H116.727V159.091H119.727ZM118.227 109.682H121.489V106.682H118.227V109.682ZM119.989 108.182V159.091H122.989V108.182H119.989ZM121.489 157.591H118.227V160.591H121.489V157.591ZM130.694 123.278C130.403 120.823 129.191 118.864 127.124 117.507L125.478 120.015C126.805 120.886 127.528 122.056 127.715 123.631L130.694 123.278ZM127.124 117.507C125.135 116.202 122.752 115.591 120.057 115.591V118.591C122.294 118.591 124.074 119.094 125.478 120.015L127.124 117.507ZM120.057 115.591C118.094 115.591 116.307 115.908 114.73 116.589L115.918 119.343C117.046 118.857 118.413 118.591 120.057 118.591V115.591ZM114.725 116.591C113.181 117.263 111.91 118.218 110.976 119.48L113.387 121.265C113.965 120.485 114.788 119.835 115.923 119.341L114.725 116.591ZM110.969 119.49C110.034 120.775 109.568 122.246 109.568 123.852H112.568C112.568 122.86 112.845 122.011 113.395 121.254L110.969 119.49ZM109.568 123.852C109.568 125.185 109.889 126.419 110.592 127.483L113.095 125.829C112.765 125.33 112.568 124.693 112.568 123.852H109.568ZM110.609 127.508C111.259 128.451 112.086 129.234 113.073 129.855L114.671 127.316C114.014 126.902 113.489 126.399 113.079 125.805L110.609 127.508ZM113.088 129.864C113.994 130.419 114.945 130.88 115.94 131.246L116.975 128.43C116.167 128.133 115.394 127.759 114.656 127.306L113.088 129.864ZM115.958 131.253C116.89 131.581 117.759 131.853 118.561 132.064L119.325 129.163C118.616 128.977 117.828 128.731 116.957 128.424L115.958 131.253ZM118.553 132.062L122.69 133.176L123.47 130.279L119.333 129.165L118.553 132.062ZM122.699 133.178C123.698 133.44 124.827 133.807 126.089 134.284L127.149 131.477C125.813 130.973 124.583 130.571 123.46 130.276L122.699 133.178ZM126.094 134.286C127.279 134.729 128.417 135.335 129.509 136.112L131.247 133.667C129.952 132.746 128.584 132.014 127.144 131.476L126.094 134.286ZM129.524 136.122C130.547 136.83 131.395 137.743 132.072 138.879L134.649 137.343C133.762 135.854 132.622 134.618 131.232 133.656L129.524 136.122ZM132.072 138.879C132.685 139.908 133.034 141.238 133.034 142.943H136.034C136.034 140.831 135.601 138.939 134.649 137.343L132.072 138.879ZM133.034 142.943C133.034 144.866 132.535 146.569 131.546 148.092L134.062 149.726C135.38 147.696 136.034 145.422 136.034 142.943H133.034ZM131.542 148.099C130.575 149.605 129.136 150.844 127.148 151.79L128.437 154.499C130.851 153.351 132.753 151.766 134.066 149.719L131.542 148.099ZM127.145 151.792C125.209 152.719 122.785 153.216 119.818 153.216V156.216C123.108 156.216 126.001 155.666 128.44 154.498L127.145 151.792ZM119.818 153.216C117.059 153.216 114.749 152.77 112.847 151.932L111.636 154.676C114.003 155.72 116.744 156.216 119.818 156.216V153.216ZM112.85 151.933C110.942 151.086 109.492 149.932 108.445 148.486L106.015 150.246C107.408 152.169 109.299 153.639 111.633 154.675L112.85 151.933ZM108.449 148.493C107.417 147.052 106.819 145.367 106.678 143.393L103.686 143.607C103.863 146.088 104.63 148.314 106.011 150.24L108.449 148.493ZM105.182 145H110.273V142H105.182V145ZM108.778 143.629C108.935 145.442 109.558 147.035 110.706 148.318L112.942 146.318C112.287 145.586 111.876 144.633 111.767 143.371L108.778 143.629ZM110.72 148.334C111.816 149.525 113.184 150.396 114.786 150.96L115.783 148.131C114.6 147.714 113.661 147.1 112.928 146.303L110.72 148.334ZM114.802 150.966C116.376 151.5 118.051 151.761 119.818 151.761V148.761C118.35 148.761 117.003 148.545 115.766 148.125L114.802 150.966ZM119.818 151.761C121.863 151.761 123.75 151.43 125.455 150.736L124.324 147.957C123.032 148.483 121.538 148.761 119.818 148.761V151.761ZM125.465 150.732C127.161 150.026 128.567 149.023 129.623 147.695L127.275 145.828C126.581 146.701 125.613 147.421 124.313 147.962L125.465 150.732ZM129.628 147.688C130.722 146.297 131.261 144.667 131.261 142.864H128.261C128.261 144.03 127.926 144.999 127.269 145.835L129.628 147.688ZM131.261 142.864C131.261 141.217 130.793 139.739 129.748 138.565L127.508 140.56C127.974 141.083 128.261 141.805 128.261 142.864H131.261ZM129.748 138.565C128.822 137.526 127.636 136.718 126.238 136.116L125.052 138.872C126.12 139.331 126.922 139.903 127.508 140.56L129.748 138.565ZM126.238 136.116C124.936 135.557 123.539 135.071 122.049 134.657L121.246 137.548C122.62 137.929 123.888 138.371 125.052 138.872L126.238 136.116ZM122.06 134.66L117.048 133.228L116.224 136.113L121.236 137.545L122.06 134.66ZM117.051 133.229C114.024 132.359 111.732 131.145 110.092 129.646L108.067 131.86C110.139 133.754 112.885 135.153 116.222 136.112L117.051 133.229ZM110.092 129.646C108.577 128.261 107.795 126.457 107.795 124.091H104.795C104.795 127.213 105.87 129.851 108.067 131.86L110.092 129.646ZM107.795 124.091C107.795 122.098 108.328 120.425 109.358 119.007L106.931 117.243C105.496 119.219 104.795 121.523 104.795 124.091H107.795ZM109.357 119.008C110.437 117.527 111.893 116.36 113.771 115.516L112.541 112.78C110.23 113.818 108.345 115.303 106.933 117.242L109.357 119.008ZM113.775 115.514C115.666 114.658 117.805 114.216 120.216 114.216V111.216C117.43 111.216 114.862 111.728 112.537 112.781L113.775 115.514ZM120.216 114.216C122.66 114.216 124.773 114.654 126.588 115.49L127.844 112.766C125.575 111.72 123.022 111.216 120.216 111.216V114.216ZM126.595 115.493C128.432 116.328 129.837 117.448 130.861 118.836L133.275 117.056C131.913 115.209 130.084 113.784 127.837 112.762L126.595 115.493ZM130.866 118.843C131.885 120.21 132.421 121.748 132.478 123.503L135.476 123.406C135.401 121.051 134.664 118.917 133.271 117.049L130.866 118.843ZM133.977 121.955H129.205V124.955H133.977V121.955Z" fill="black"/>
    <path d="M178.227 157.091V106.182H181.489V157.091H178.227ZM189.205 121.455C188.966 119.439 187.998 117.875 186.301 116.761C184.604 115.648 182.523 115.091 180.057 115.091C178.254 115.091 176.676 115.383 175.324 115.966C173.985 116.549 172.938 117.351 172.182 118.372C171.439 119.393 171.068 120.553 171.068 121.852C171.068 122.939 171.327 123.874 171.844 124.656C172.374 125.425 173.05 126.068 173.872 126.585C174.694 127.089 175.556 127.507 176.457 127.838C177.359 128.156 178.188 128.415 178.943 128.614L183.08 129.727C184.14 130.006 185.32 130.39 186.619 130.881C187.932 131.371 189.185 132.041 190.378 132.889C191.584 133.724 192.579 134.798 193.361 136.111C194.143 137.423 194.534 139.034 194.534 140.943C194.534 143.144 193.957 145.133 192.804 146.909C191.664 148.686 189.993 150.098 187.793 151.145C185.605 152.192 182.947 152.716 179.818 152.716C176.902 152.716 174.376 152.245 172.241 151.304C170.12 150.363 168.45 149.05 167.23 147.366C166.024 145.683 165.341 143.727 165.182 141.5H170.273C170.405 143.038 170.922 144.311 171.824 145.318C172.739 146.312 173.892 147.055 175.284 147.545C176.689 148.023 178.201 148.261 179.818 148.261C181.701 148.261 183.391 147.956 184.889 147.347C186.387 146.723 187.574 145.862 188.449 144.761C189.324 143.648 189.761 142.348 189.761 140.864C189.761 139.511 189.384 138.411 188.628 137.562C187.872 136.714 186.878 136.025 185.645 135.494C184.412 134.964 183.08 134.5 181.648 134.102L176.636 132.67C173.455 131.756 170.936 130.45 169.08 128.753C167.223 127.056 166.295 124.835 166.295 122.091C166.295 119.811 166.912 117.822 168.145 116.125C169.391 114.415 171.062 113.089 173.156 112.148C175.264 111.193 177.617 110.716 180.216 110.716C182.841 110.716 185.174 111.187 187.216 112.128C189.258 113.056 190.875 114.329 192.068 115.946C193.275 117.563 193.911 119.4 193.977 121.455H189.205Z" fill="black"/>
    <path d="M178.227 157.091H176.727V158.591H178.227V157.091ZM178.227 106.182V104.682H176.727V106.182H178.227ZM181.489 106.182H182.989V104.682H181.489V106.182ZM181.489 157.091V158.591H182.989V157.091H181.489ZM189.205 121.455L187.715 121.631L187.872 122.955H189.205V121.455ZM186.301 116.761L185.478 118.015L185.478 118.015L186.301 116.761ZM175.324 115.966L174.73 114.589L174.725 114.591L175.324 115.966ZM172.182 118.372L170.976 117.48L170.969 117.49L172.182 118.372ZM171.844 124.656L170.592 125.483L170.601 125.496L170.609 125.508L171.844 124.656ZM173.872 126.585L173.073 127.855L173.081 127.86L173.088 127.864L173.872 126.585ZM176.457 127.838L175.94 129.246L175.949 129.249L175.958 129.253L176.457 127.838ZM178.943 128.614L179.333 127.165L179.325 127.163L178.943 128.614ZM183.08 129.727L182.69 131.176L182.699 131.178L183.08 129.727ZM186.619 130.881L186.089 132.284L186.094 132.286L186.619 130.881ZM190.378 132.889L189.509 134.112L189.516 134.117L189.524 134.122L190.378 132.889ZM193.361 136.111L194.649 135.343L194.649 135.343L193.361 136.111ZM192.804 146.909L191.546 146.092L191.542 146.099L192.804 146.909ZM187.793 151.145L187.148 149.79L187.145 149.792L187.793 151.145ZM172.241 151.304L171.633 152.675L171.636 152.676L172.241 151.304ZM167.23 147.366L166.011 148.24L166.015 148.246L167.23 147.366ZM165.182 141.5V140H163.571L163.686 141.607L165.182 141.5ZM170.273 141.5L171.767 141.371L171.649 140H170.273V141.5ZM171.824 145.318L170.706 146.318L170.713 146.326L170.72 146.334L171.824 145.318ZM175.284 147.545L174.786 148.96L174.794 148.963L174.802 148.966L175.284 147.545ZM184.889 147.347L185.455 148.736L185.465 148.732L184.889 147.347ZM188.449 144.761L189.623 145.695L189.628 145.688L188.449 144.761ZM188.628 137.562L189.748 136.565L189.748 136.565L188.628 137.562ZM185.645 135.494L185.052 136.872L185.052 136.872L185.645 135.494ZM181.648 134.102L181.236 135.545L181.246 135.548L181.648 134.102ZM176.636 132.67L176.222 134.112L176.224 134.113L176.636 132.67ZM169.08 128.753L168.067 129.86L168.067 129.86L169.08 128.753ZM168.145 116.125L166.933 115.242L166.931 115.243L168.145 116.125ZM173.156 112.148L173.771 113.516L173.775 113.514L173.156 112.148ZM187.216 112.128L186.588 113.49L186.595 113.493L187.216 112.128ZM192.068 115.946L190.861 116.837L190.866 116.843L192.068 115.946ZM193.977 121.455V122.955H195.526L195.476 121.406L193.977 121.455ZM179.727 157.091V106.182H176.727V157.091H179.727ZM178.227 107.682H181.489V104.682H178.227V107.682ZM179.989 106.182V157.091H182.989V106.182H179.989ZM181.489 155.591H178.227V158.591H181.489V155.591ZM190.694 121.278C190.403 118.823 189.191 116.864 187.124 115.507L185.478 118.015C186.805 118.886 187.528 120.056 187.715 121.631L190.694 121.278ZM187.124 115.507C185.135 114.202 182.752 113.591 180.057 113.591V116.591C182.294 116.591 184.074 117.094 185.478 118.015L187.124 115.507ZM180.057 113.591C178.094 113.591 176.307 113.908 174.73 114.589L175.918 117.343C177.046 116.857 178.413 116.591 180.057 116.591V113.591ZM174.725 114.591C173.181 115.263 171.91 116.218 170.976 117.48L173.387 119.265C173.965 118.485 174.788 117.835 175.923 117.341L174.725 114.591ZM170.969 117.49C170.034 118.775 169.568 120.246 169.568 121.852H172.568C172.568 120.86 172.845 120.011 173.395 119.254L170.969 117.49ZM169.568 121.852C169.568 123.185 169.889 124.419 170.592 125.483L173.095 123.829C172.765 123.33 172.568 122.693 172.568 121.852H169.568ZM170.609 125.508C171.259 126.451 172.086 127.234 173.073 127.855L174.671 125.316C174.014 124.902 173.489 124.399 173.079 123.805L170.609 125.508ZM173.088 127.864C173.994 128.419 174.945 128.88 175.94 129.246L176.975 126.43C176.167 126.133 175.394 125.759 174.656 125.306L173.088 127.864ZM175.958 129.253C176.89 129.581 177.759 129.853 178.561 130.064L179.325 127.163C178.616 126.977 177.828 126.731 176.957 126.424L175.958 129.253ZM178.553 130.062L182.69 131.176L183.47 128.279L179.333 127.165L178.553 130.062ZM182.699 131.178C183.698 131.44 184.827 131.807 186.089 132.284L187.149 129.477C185.813 128.973 184.583 128.571 183.46 128.276L182.699 131.178ZM186.094 132.286C187.279 132.729 188.417 133.335 189.509 134.112L191.247 131.667C189.952 130.746 188.584 130.014 187.144 129.476L186.094 132.286ZM189.524 134.122C190.547 134.83 191.395 135.743 192.072 136.879L194.649 135.343C193.762 133.854 192.622 132.618 191.232 131.656L189.524 134.122ZM192.072 136.879C192.685 137.908 193.034 139.238 193.034 140.943H196.034C196.034 138.831 195.601 136.939 194.649 135.343L192.072 136.879ZM193.034 140.943C193.034 142.866 192.535 144.569 191.546 146.092L194.062 147.726C195.38 145.696 196.034 143.422 196.034 140.943H193.034ZM191.542 146.099C190.575 147.605 189.136 148.844 187.148 149.79L188.437 152.499C190.851 151.351 192.753 149.766 194.066 147.719L191.542 146.099ZM187.145 149.792C185.209 150.719 182.785 151.216 179.818 151.216V154.216C183.108 154.216 186.001 153.666 188.44 152.498L187.145 149.792ZM179.818 151.216C177.059 151.216 174.749 150.77 172.847 149.932L171.636 152.676C174.003 153.72 176.744 154.216 179.818 154.216V151.216ZM172.85 149.933C170.942 149.086 169.492 147.932 168.445 146.486L166.015 148.246C167.408 150.169 169.299 151.639 171.633 152.675L172.85 149.933ZM168.449 146.493C167.417 145.052 166.819 143.367 166.678 141.393L163.686 141.607C163.863 144.088 164.63 146.314 166.011 148.24L168.449 146.493ZM165.182 143H170.273V140H165.182V143ZM168.778 141.629C168.935 143.442 169.558 145.035 170.706 146.318L172.942 144.318C172.287 143.586 171.876 142.633 171.767 141.371L168.778 141.629ZM170.72 146.334C171.816 147.525 173.184 148.396 174.786 148.96L175.783 146.131C174.6 145.714 173.661 145.1 172.928 144.303L170.72 146.334ZM174.802 148.966C176.376 149.5 178.051 149.761 179.818 149.761V146.761C178.35 146.761 177.003 146.545 175.766 146.125L174.802 148.966ZM179.818 149.761C181.863 149.761 183.75 149.43 185.455 148.736L184.324 145.957C183.032 146.483 181.538 146.761 179.818 146.761V149.761ZM185.465 148.732C187.161 148.026 188.567 147.023 189.623 145.695L187.275 143.828C186.581 144.701 185.613 145.421 184.313 145.962L185.465 148.732ZM189.628 145.688C190.722 144.297 191.261 142.667 191.261 140.864H188.261C188.261 142.03 187.926 142.999 187.269 143.835L189.628 145.688ZM191.261 140.864C191.261 139.217 190.793 137.739 189.748 136.565L187.508 138.56C187.974 139.083 188.261 139.805 188.261 140.864H191.261ZM189.748 136.565C188.822 135.526 187.636 134.718 186.238 134.116L185.052 136.872C186.12 137.331 186.922 137.903 187.508 138.56L189.748 136.565ZM186.238 134.116C184.936 133.557 183.539 133.071 182.049 132.657L181.246 135.548C182.62 135.929 183.888 136.371 185.052 136.872L186.238 134.116ZM182.06 132.66L177.048 131.228L176.224 134.113L181.236 135.545L182.06 132.66ZM177.051 131.229C174.024 130.359 171.732 129.145 170.092 127.646L168.067 129.86C170.139 131.754 172.885 133.153 176.222 134.112L177.051 131.229ZM170.092 127.646C168.577 126.261 167.795 124.457 167.795 122.091H164.795C164.795 125.213 165.87 127.851 168.067 129.86L170.092 127.646ZM167.795 122.091C167.795 120.098 168.328 118.425 169.358 117.007L166.931 115.243C165.496 117.219 164.795 119.523 164.795 122.091H167.795ZM169.357 117.008C170.437 115.527 171.893 114.36 173.771 113.516L172.541 110.78C170.23 111.818 168.345 113.303 166.933 115.242L169.357 117.008ZM173.775 113.514C175.666 112.658 177.805 112.216 180.216 112.216V109.216C177.43 109.216 174.862 109.728 172.537 110.781L173.775 113.514ZM180.216 112.216C182.66 112.216 184.773 112.654 186.588 113.49L187.844 110.766C185.575 109.72 183.022 109.216 180.216 109.216V112.216ZM186.595 113.493C188.432 114.328 189.837 115.448 190.861 116.836L193.275 115.056C191.913 113.209 190.084 111.784 187.837 110.762L186.595 113.493ZM190.866 116.843C191.885 118.21 192.421 119.748 192.478 121.503L195.476 121.406C195.401 119.051 194.664 116.917 193.271 115.049L190.866 116.843ZM193.977 119.955H189.205V122.955H193.977V119.955Z" fill="black"/>    
    
        
    <path d="M139.313 217.813C122.915 207.695 109.499 208.07 108.753 209.944" stroke="black" stroke-width="1.52"/>
    

    </svg>
    