
    <svg width="300" height="300" viewBox="0 0 300 300" fill="none" xmlns="http://www.w3.org/2000/svg">
    <rect width="300" height="300" fill="#FC7777"/>
    
            
    <circle cx="149.5" cy="151.6" r="93.5" fill="url(#paint0_linear_6_39)" stroke="black" stroke-width="4"/>
    <defs>
    <linearGradient id="paint0_linear_6_39" x1="150" y1="56.8" x2="92.3467" y2="229.76" gradientUnits="userSpaceOnUse">
    <stop stop-color="white"/>
    <stop offset="0.734375" stop-color="white"/>
    <stop offset="1" stop-color="#C4C2C2"/>
    </linearGradient>
    </defs>
    
     
    <path d="M167 41C182.792 53.1433 188.62 54.2331 189.56 53.2601" stroke="black" stroke-width="3"/>
    <path d="M106 47.0891C129.909 55.0267 135.166 44.363 134.996 43" stroke="black" stroke-width="3"/>
    
        
    <path d="M127.982 96C128.125 145.937 127.387 166.141 127 170" stroke="black" stroke-width="10"/>
    <path d="M115 94H141" stroke="black" stroke-width="5"/>
    <path d="M114 172H140" stroke="black" stroke-width="5"/>
    <path d="M183 94C183 147.986 183 169.828 183 174" stroke="black" stroke-width="10"/>
    <path d="M171 94H197" stroke="black" stroke-width="5"/>
    <path d="M169 174H182H195" stroke="black" stroke-width="5"/>
    
    
        
    <path d="M123 202H146.167C153.662 205.533 148.211 209.571 146.167 209.571C154.343 213.608 144.122 219.16 143.441 216.132" stroke="black" stroke-width="2"/>
    

    </svg>
    